<mxfile host="app.diagrams.net" modified="2024-01-17T05:53:11.714Z" agent="Mozilla/5.0 (Windows NT 10.0; Win64; x64) AppleWebKit/537.36 (KHTML, like Gecko) Chrome/120.0.0.0 Safari/537.36" etag="C_Q4eUV5AzeXGQccTrkd" version="22.1.18" type="github">
  <diagram name="第 1 页" id="cSCV3CNTXTXwVB_BIsae">
    <mxGraphModel dx="1012" dy="582" grid="1" gridSize="10" guides="1" tooltips="1" connect="1" arrows="1" fold="1" page="1" pageScale="1" pageWidth="827" pageHeight="1169" math="0" shadow="0">
      <root>
        <mxCell id="0" />
        <mxCell id="1" parent="0" />
        <mxCell id="yJOFYdY696FyBgO-EQ7J-1" value="生产者" style="rounded=1;whiteSpace=wrap;html=1;sketch=1;hachureGap=4;jiggle=2;curveFitting=1;fontFamily=Architects Daughter;fontSource=https%3A%2F%2Ffonts.googleapis.com%2Fcss%3Ffamily%3DArchitects%2BDaughter;fontSize=20;fillColor=#f5f5f5;fontColor=#333333;strokeColor=#666666;verticalAlign=top;" vertex="1" parent="1">
          <mxGeometry x="80" y="120" width="160" height="310" as="geometry" />
        </mxCell>
        <mxCell id="yJOFYdY696FyBgO-EQ7J-2" value="Producer 1" style="rounded=1;whiteSpace=wrap;html=1;sketch=1;hachureGap=4;jiggle=2;curveFitting=1;fontFamily=Architects Daughter;fontSource=https%3A%2F%2Ffonts.googleapis.com%2Fcss%3Ffamily%3DArchitects%2BDaughter;fontSize=20;fillColor=#dae8fc;strokeColor=#6c8ebf;" vertex="1" parent="1">
          <mxGeometry x="100" y="160" width="120" height="60" as="geometry" />
        </mxCell>
        <mxCell id="yJOFYdY696FyBgO-EQ7J-3" value="Producer 2" style="rounded=1;whiteSpace=wrap;html=1;sketch=1;hachureGap=4;jiggle=2;curveFitting=1;fontFamily=Architects Daughter;fontSource=https%3A%2F%2Ffonts.googleapis.com%2Fcss%3Ffamily%3DArchitects%2BDaughter;fontSize=20;fillColor=#dae8fc;strokeColor=#6c8ebf;" vertex="1" parent="1">
          <mxGeometry x="100" y="240" width="120" height="60" as="geometry" />
        </mxCell>
        <mxCell id="yJOFYdY696FyBgO-EQ7J-4" value="Producer 3" style="rounded=1;whiteSpace=wrap;html=1;sketch=1;hachureGap=4;jiggle=2;curveFitting=1;fontFamily=Architects Daughter;fontSource=https%3A%2F%2Ffonts.googleapis.com%2Fcss%3Ffamily%3DArchitects%2BDaughter;fontSize=20;fillColor=#dae8fc;strokeColor=#6c8ebf;" vertex="1" parent="1">
          <mxGeometry x="100" y="330" width="120" height="60" as="geometry" />
        </mxCell>
        <mxCell id="yJOFYdY696FyBgO-EQ7J-5" value="" style="rounded=1;whiteSpace=wrap;html=1;sketch=1;hachureGap=4;jiggle=2;curveFitting=1;fontFamily=Architects Daughter;fontSource=https%3A%2F%2Ffonts.googleapis.com%2Fcss%3Ffamily%3DArchitects%2BDaughter;fontSize=20;" vertex="1" parent="1">
          <mxGeometry x="280" y="120" width="420" height="310" as="geometry" />
        </mxCell>
        <mxCell id="yJOFYdY696FyBgO-EQ7J-6" value="broker0" style="rounded=1;whiteSpace=wrap;html=1;sketch=1;hachureGap=4;jiggle=2;curveFitting=1;fontFamily=Architects Daughter;fontSource=https%3A%2F%2Ffonts.googleapis.com%2Fcss%3Ffamily%3DArchitects%2BDaughter;fontSize=20;horizontal=1;verticalAlign=top;" vertex="1" parent="1">
          <mxGeometry x="300" y="145" width="120" height="265" as="geometry" />
        </mxCell>
        <mxCell id="yJOFYdY696FyBgO-EQ7J-7" value="broker 1" style="rounded=1;whiteSpace=wrap;html=1;sketch=1;hachureGap=4;jiggle=2;curveFitting=1;fontFamily=Architects Daughter;fontSource=https%3A%2F%2Ffonts.googleapis.com%2Fcss%3Ffamily%3DArchitects%2BDaughter;fontSize=20;verticalAlign=top;" vertex="1" parent="1">
          <mxGeometry x="430" y="145" width="120" height="265" as="geometry" />
        </mxCell>
        <mxCell id="yJOFYdY696FyBgO-EQ7J-8" value="broker 2" style="rounded=1;whiteSpace=wrap;html=1;sketch=1;hachureGap=4;jiggle=2;curveFitting=1;fontFamily=Architects Daughter;fontSource=https%3A%2F%2Ffonts.googleapis.com%2Fcss%3Ffamily%3DArchitects%2BDaughter;fontSize=20;verticalAlign=top;" vertex="1" parent="1">
          <mxGeometry x="560" y="145" width="120" height="265" as="geometry" />
        </mxCell>
        <mxCell id="yJOFYdY696FyBgO-EQ7J-9" value="&lt;font style=&quot;font-size: 17px;&quot;&gt;TopicA&lt;br&gt;Parttion 0&lt;br&gt;Leader&lt;/font&gt;" style="rounded=1;whiteSpace=wrap;html=1;sketch=1;hachureGap=4;jiggle=2;curveFitting=1;fontFamily=Architects Daughter;fontSource=https%3A%2F%2Ffonts.googleapis.com%2Fcss%3Ffamily%3DArchitects%2BDaughter;fontSize=20;fillColor=#d5e8d4;strokeColor=#82b366;" vertex="1" parent="1">
          <mxGeometry x="310" y="179" width="100" height="70" as="geometry" />
        </mxCell>
        <mxCell id="yJOFYdY696FyBgO-EQ7J-10" value="&lt;font style=&quot;font-size: 17px;&quot;&gt;TopicA&lt;br&gt;Parttion 1&lt;br&gt;Follower&lt;/font&gt;" style="rounded=1;whiteSpace=wrap;html=1;sketch=1;hachureGap=4;jiggle=2;curveFitting=1;fontFamily=Architects Daughter;fontSource=https%3A%2F%2Ffonts.googleapis.com%2Fcss%3Ffamily%3DArchitects%2BDaughter;fontSize=20;fillColor=#f8cecc;strokeColor=#b85450;" vertex="1" parent="1">
          <mxGeometry x="310" y="257" width="100" height="70" as="geometry" />
        </mxCell>
        <mxCell id="yJOFYdY696FyBgO-EQ7J-11" value="&lt;font style=&quot;font-size: 17px;&quot;&gt;TopicB&lt;br&gt;Parttion 0&lt;br&gt;Follower&lt;/font&gt;" style="rounded=1;whiteSpace=wrap;html=1;sketch=1;hachureGap=4;jiggle=2;curveFitting=1;fontFamily=Architects Daughter;fontSource=https%3A%2F%2Ffonts.googleapis.com%2Fcss%3Ffamily%3DArchitects%2BDaughter;fontSize=20;fillColor=#ffe6cc;strokeColor=#d79b00;" vertex="1" parent="1">
          <mxGeometry x="311" y="335" width="100" height="70" as="geometry" />
        </mxCell>
        <mxCell id="yJOFYdY696FyBgO-EQ7J-12" value="&lt;font style=&quot;font-size: 17px;&quot;&gt;TopicA&lt;br&gt;Parttion 0&lt;br&gt;Follower&lt;/font&gt;" style="rounded=1;whiteSpace=wrap;html=1;sketch=1;hachureGap=4;jiggle=2;curveFitting=1;fontFamily=Architects Daughter;fontSource=https%3A%2F%2Ffonts.googleapis.com%2Fcss%3Ffamily%3DArchitects%2BDaughter;fontSize=20;fillColor=#d5e8d4;strokeColor=#82b366;" vertex="1" parent="1">
          <mxGeometry x="440" y="179" width="100" height="70" as="geometry" />
        </mxCell>
        <mxCell id="yJOFYdY696FyBgO-EQ7J-13" value="&lt;font style=&quot;font-size: 17px;&quot;&gt;TopicA&lt;br&gt;Parttion 1&lt;br&gt;Leader&lt;/font&gt;" style="rounded=1;whiteSpace=wrap;html=1;sketch=1;hachureGap=4;jiggle=2;curveFitting=1;fontFamily=Architects Daughter;fontSource=https%3A%2F%2Ffonts.googleapis.com%2Fcss%3Ffamily%3DArchitects%2BDaughter;fontSize=20;fillColor=#f8cecc;strokeColor=#b85450;" vertex="1" parent="1">
          <mxGeometry x="440" y="257" width="100" height="70" as="geometry" />
        </mxCell>
        <mxCell id="yJOFYdY696FyBgO-EQ7J-14" value="&lt;font style=&quot;font-size: 17px;&quot;&gt;TopicB&lt;br&gt;Parttion 0&lt;br&gt;Follower&lt;/font&gt;" style="rounded=1;whiteSpace=wrap;html=1;sketch=1;hachureGap=4;jiggle=2;curveFitting=1;fontFamily=Architects Daughter;fontSource=https%3A%2F%2Ffonts.googleapis.com%2Fcss%3Ffamily%3DArchitects%2BDaughter;fontSize=20;fillColor=#ffe6cc;strokeColor=#d79b00;" vertex="1" parent="1">
          <mxGeometry x="440" y="335" width="100" height="70" as="geometry" />
        </mxCell>
        <mxCell id="yJOFYdY696FyBgO-EQ7J-15" value="&lt;font style=&quot;font-size: 17px;&quot;&gt;TopicA&lt;br&gt;Parttion 0&lt;br&gt;Follower&lt;/font&gt;" style="rounded=1;whiteSpace=wrap;html=1;sketch=1;hachureGap=4;jiggle=2;curveFitting=1;fontFamily=Architects Daughter;fontSource=https%3A%2F%2Ffonts.googleapis.com%2Fcss%3Ffamily%3DArchitects%2BDaughter;fontSize=20;fillColor=#d5e8d4;strokeColor=#82b366;" vertex="1" parent="1">
          <mxGeometry x="570" y="179" width="100" height="70" as="geometry" />
        </mxCell>
        <mxCell id="yJOFYdY696FyBgO-EQ7J-16" value="&lt;font style=&quot;font-size: 17px;&quot;&gt;TopicA&lt;br&gt;Parttion 1&lt;br&gt;Follower&lt;/font&gt;" style="rounded=1;whiteSpace=wrap;html=1;sketch=1;hachureGap=4;jiggle=2;curveFitting=1;fontFamily=Architects Daughter;fontSource=https%3A%2F%2Ffonts.googleapis.com%2Fcss%3Ffamily%3DArchitects%2BDaughter;fontSize=20;fillColor=#f8cecc;strokeColor=#b85450;" vertex="1" parent="1">
          <mxGeometry x="570" y="257" width="100" height="70" as="geometry" />
        </mxCell>
        <mxCell id="yJOFYdY696FyBgO-EQ7J-17" value="&lt;font style=&quot;font-size: 17px;&quot;&gt;TopicB&lt;br&gt;Parttion 0&lt;br&gt;Leader&lt;/font&gt;" style="rounded=1;whiteSpace=wrap;html=1;sketch=1;hachureGap=4;jiggle=2;curveFitting=1;fontFamily=Architects Daughter;fontSource=https%3A%2F%2Ffonts.googleapis.com%2Fcss%3Ffamily%3DArchitects%2BDaughter;fontSize=20;fillColor=#ffe6cc;strokeColor=#d79b00;" vertex="1" parent="1">
          <mxGeometry x="570" y="335" width="100" height="70" as="geometry" />
        </mxCell>
        <mxCell id="yJOFYdY696FyBgO-EQ7J-18" value="消费者" style="rounded=1;whiteSpace=wrap;html=1;sketch=1;hachureGap=4;jiggle=2;curveFitting=1;fontFamily=Architects Daughter;fontSource=https%3A%2F%2Ffonts.googleapis.com%2Fcss%3Ffamily%3DArchitects%2BDaughter;fontSize=20;fillColor=#d5e8d4;strokeColor=#82b366;verticalAlign=top;" vertex="1" parent="1">
          <mxGeometry x="730" y="115" width="160" height="310" as="geometry" />
        </mxCell>
        <mxCell id="yJOFYdY696FyBgO-EQ7J-19" value="&lt;font style=&quot;font-size: 15px;&quot;&gt;Consumer Group A&lt;/font&gt;" style="rounded=1;whiteSpace=wrap;html=1;sketch=1;hachureGap=4;jiggle=2;curveFitting=1;fontFamily=Architects Daughter;fontSource=https%3A%2F%2Ffonts.googleapis.com%2Fcss%3Ffamily%3DArchitects%2BDaughter;fontSize=20;verticalAlign=top;" vertex="1" parent="1">
          <mxGeometry x="740" y="150" width="140" height="100" as="geometry" />
        </mxCell>
        <mxCell id="yJOFYdY696FyBgO-EQ7J-20" value="Consumer 0" style="rounded=1;whiteSpace=wrap;html=1;sketch=1;hachureGap=4;jiggle=2;curveFitting=1;fontFamily=Architects Daughter;fontSource=https%3A%2F%2Ffonts.googleapis.com%2Fcss%3Ffamily%3DArchitects%2BDaughter;fontSize=20;fillColor=#dae8fc;strokeColor=#6c8ebf;" vertex="1" parent="1">
          <mxGeometry x="750" y="184" width="120" height="26" as="geometry" />
        </mxCell>
        <mxCell id="yJOFYdY696FyBgO-EQ7J-21" value="Consumer 1" style="rounded=1;whiteSpace=wrap;html=1;sketch=1;hachureGap=4;jiggle=2;curveFitting=1;fontFamily=Architects Daughter;fontSource=https%3A%2F%2Ffonts.googleapis.com%2Fcss%3Ffamily%3DArchitects%2BDaughter;fontSize=20;fillColor=#dae8fc;strokeColor=#6c8ebf;" vertex="1" parent="1">
          <mxGeometry x="750" y="220" width="120" height="26" as="geometry" />
        </mxCell>
        <mxCell id="yJOFYdY696FyBgO-EQ7J-22" value="&lt;font style=&quot;font-size: 15px;&quot;&gt;Consumer Group B&lt;/font&gt;" style="rounded=1;whiteSpace=wrap;html=1;sketch=1;hachureGap=4;jiggle=2;curveFitting=1;fontFamily=Architects Daughter;fontSource=https%3A%2F%2Ffonts.googleapis.com%2Fcss%3Ffamily%3DArchitects%2BDaughter;fontSize=20;verticalAlign=top;" vertex="1" parent="1">
          <mxGeometry x="740" y="300" width="140" height="100" as="geometry" />
        </mxCell>
        <mxCell id="yJOFYdY696FyBgO-EQ7J-23" value="Consumer 0" style="rounded=1;whiteSpace=wrap;html=1;sketch=1;hachureGap=4;jiggle=2;curveFitting=1;fontFamily=Architects Daughter;fontSource=https%3A%2F%2Ffonts.googleapis.com%2Fcss%3Ffamily%3DArchitects%2BDaughter;fontSize=20;fillColor=#dae8fc;strokeColor=#6c8ebf;" vertex="1" parent="1">
          <mxGeometry x="750" y="334" width="120" height="26" as="geometry" />
        </mxCell>
        <mxCell id="yJOFYdY696FyBgO-EQ7J-24" value="Consumer 1" style="rounded=1;whiteSpace=wrap;html=1;sketch=1;hachureGap=4;jiggle=2;curveFitting=1;fontFamily=Architects Daughter;fontSource=https%3A%2F%2Ffonts.googleapis.com%2Fcss%3Ffamily%3DArchitects%2BDaughter;fontSize=20;fillColor=#dae8fc;strokeColor=#6c8ebf;" vertex="1" parent="1">
          <mxGeometry x="750" y="370" width="120" height="26" as="geometry" />
        </mxCell>
      </root>
    </mxGraphModel>
  </diagram>
</mxfile>
